<?xml version="1.0" ?><!DOCTYPE svg  PUBLIC '-//W3C//DTD SVG 1.1//EN'  'http://www.w3.org/Graphics/SVG/1.1/DTD/svg11.dtd'><svg height="43.3492mm" style="shape-rendering:geometricPrecision; text-rendering:geometricPrecision; image-rendering:optimizeQuality; fill-rule:evenodd; clip-rule:evenodd" version="1.1" viewBox="0 0 4335 4335" width="43.3492mm" xml:space="preserve" xmlns="http://www.w3.org/2000/svg" xmlns:xlink="http://www.w3.org/1999/xlink"><defs><style type="text/css">
  </style></defs><g id="Layer_x0020_1"><path class="fil0" d="M3249 1894c-93,85 -69,228 53,282 288,59 212,-424 -53,-282zm883 417c0,54 -212,209 -268,240 -15,8 -24,13 -38,21 -18,11 -26,12 -46,21 -65,31 -228,99 -291,99 -275,0 -520,-505 -556,-714 -5,-30 -7,-58 -11,-82 -25,-151 31,-261 150,-356 144,-116 421,6 549,98 143,104 325,309 418,471 19,33 93,163 93,203z"/><path class="fil0" d="M2633 1990c224,-5 128,-84 195,203 -322,0 -100,-20 -254,330 -48,109 -158,287 -271,313 85,-178 135,-415 135,-618 0,-42 -113,-25 -195,-25 -19,82 -16,203 -86,320 -41,69 -114,184 -202,205 71,-134 110,-330 110,-516l-229 0c-2,88 -37,180 -70,243 -30,55 -94,140 -158,155 61,-116 85,-257 85,-398l-262 0c-2,101 -67,230 -161,279 3,-36 59,-144 59,-279l-186 0c-6,75 -48,132 -102,161 5,-59 34,-82 34,-161 -161,0 -162,17 -169,-68 46,0 124,-13 169,-17 -2,-88 -56,-155 -59,-195 69,16 127,101 127,186 72,0 108,-8 178,-8 0,-148 -79,-235 -93,-296 60,14 107,60 139,106 27,40 59,124 64,182l262 -25c-6,-13 -30,-144 -54,-208 -26,-67 -54,-120 -90,-173 144,3 276,242 279,373 77,-6 138,-17 229,-17 -10,-118 -62,-261 -114,-369 -18,-38 -43,-73 -64,-105 135,3 260,173 308,301 12,31 16,40 25,76 7,27 12,60 22,80 55,-5 127,-17 186,-17 -3,-36 -20,-120 -31,-155 -17,-57 -27,-97 -47,-148 -33,-86 -122,-237 -126,-255 201,47 341,253 390,440 7,25 16,83 25,102z"/><path class="fil0" d="M830 2269c-27,18 -46,42 -70,66 -28,27 -38,46 -63,72 -24,25 -43,43 -68,68 -30,30 -43,41 -76,68 -64,54 -236,232 -307,251 90,-187 154,-462 124,-666 -26,-181 -92,-298 -160,-450l-65 -146c50,12 81,36 119,59 102,61 354,252 459,337 84,69 69,39 78,99l30 241z"/></g></svg>
